<svg viewBox="0 0 1280 720" xmlns="http://www.w3.org/2000/svg">
  <rect width="1280" height="720" fill="#FFFFFF"/>
  
  <rect x="0" y="0" width="1280" height="100" fill="#1E3A5F"/>
  <text x="640" y="62" font-family="Microsoft YaHei" font-size="36" font-weight="bold" fill="#FFFFFF" text-anchor="middle">总结与要点</text>
  
  <rect x="0" y="100" width="1280" height="8" fill="#E67E22"/>
  
  <rect x="60" y="140" width="560" height="250" rx="8" fill="#F8F9FA" stroke="#4A90A4" stroke-width="2"/>
  <rect x="60" y="140" width="560" height="50" rx="8" fill="#1E3A5F"/>
  <rect x="60" y="182" width="560" height="8" fill="#1E3A5F"/>
  <text x="340" y="175" font-family="Microsoft YaHei" font-size="22" font-weight="bold" fill="#FFFFFF" text-anchor="middle">核心概念</text>
  
  <circle cx="90" cy="220" r="6" fill="#E67E22"/>
  <text x="110" y="228" font-family="Microsoft YaHei" font-size="20" fill="#333333">排队论研究"到达—等待—服务—离开"随机过程</text>
  
  <circle cx="90" cy="260" r="6" fill="#E67E22"/>
  <text x="110" y="268" font-family="Microsoft YaHei" font-size="20" fill="#333333">核心目标：评估性能与优化资源配置</text>
  
  <circle cx="90" cy="300" r="6" fill="#E67E22"/>
  <text x="110" y="308" font-family="Microsoft YaHei" font-size="20" fill="#333333">基础参数：到达率 λ、服务率 μ、利用率 ρ</text>
  
  <circle cx="90" cy="340" r="6" fill="#E67E22"/>
  <text x="110" y="348" font-family="Microsoft YaHei" font-size="20" fill="#333333">核心指标：L, Lq, W, Wq（满足 Little 定律）</text>
  
  <rect x="660" y="140" width="560" height="250" rx="8" fill="#F8F9FA" stroke="#4A90A4" stroke-width="2"/>
  <rect x="660" y="140" width="560" height="50" rx="8" fill="#1E3A5F"/>
  <rect x="660" y="182" width="560" height="8" fill="#1E3A5F"/>
  <text x="940" y="175" font-family="Microsoft YaHei" font-size="22" font-weight="bold" fill="#FFFFFF" text-anchor="middle">经典模型</text>
  
  <rect x="690" y="210" width="150" height="60" rx="6" fill="#4A90A4"/>
  <text x="765" y="235" font-family="Microsoft YaHei" font-size="18" font-weight="bold" fill="#FFFFFF" text-anchor="middle">M/M/1</text>
  <text x="765" y="258" font-family="Microsoft YaHei" font-size="14" fill="#FFFFFF" text-anchor="middle">单服务台</text>
  
  <rect x="865" y="210" width="150" height="60" rx="6" fill="#4A90A4"/>
  <text x="940" y="235" font-family="Microsoft YaHei" font-size="18" font-weight="bold" fill="#FFFFFF" text-anchor="middle">M/M/c</text>
  <text x="940" y="258" font-family="Microsoft YaHei" font-size="14" fill="#FFFFFF" text-anchor="middle">多服务台</text>
  
  <rect x="1040" y="210" width="150" height="60" rx="6" fill="#4A90A4"/>
  <text x="1115" y="235" font-family="Microsoft YaHei" font-size="18" font-weight="bold" fill="#FFFFFF" text-anchor="middle">M/G/1</text>
  <text x="1115" y="258" font-family="Microsoft YaHei" font-size="14" fill="#FFFFFF" text-anchor="middle">一般服务时间</text>
  
  <text x="690" y="310" font-family="Microsoft YaHei" font-size="18" fill="#555555">稳定条件：ρ &lt; 1</text>
  <text x="690" y="345" font-family="Microsoft YaHei" font-size="18" fill="#555555">解析公式可直接求解稳态指标</text>
  
  <rect x="60" y="420" width="560" height="250" rx="8" fill="#F8F9FA" stroke="#4A90A4" stroke-width="2"/>
  <rect x="60" y="420" width="560" height="50" rx="8" fill="#1E3A5F"/>
  <rect x="60" y="462" width="560" height="8" fill="#1E3A5F"/>
  <text x="340" y="455" font-family="Microsoft YaHei" font-size="22" font-weight="bold" fill="#FFFFFF" text-anchor="middle">应用领域</text>
  
  <rect x="90" y="490" width="120" height="40" rx="20" fill="#E67E22"/>
  <text x="150" y="517" font-family="Microsoft YaHei" font-size="16" fill="#FFFFFF" text-anchor="middle">通信网络</text>
  
  <rect x="230" y="490" width="120" height="40" rx="20" fill="#E67E22"/>
  <text x="290" y="517" font-family="Microsoft YaHei" font-size="16" fill="#FFFFFF" text-anchor="middle">医疗系统</text>
  
  <rect x="370" y="490" width="120" height="40" rx="20" fill="#E67E22"/>
  <text x="430" y="517" font-family="Microsoft YaHei" font-size="16" fill="#FFFFFF" text-anchor="middle">交通系统</text>
  
  <rect x="90" y="550" width="120" height="40" rx="20" fill="#E67E22"/>
  <text x="150" y="577" font-family="Microsoft YaHei" font-size="16" fill="#FFFFFF" text-anchor="middle">云计算</text>
  
  <rect x="230" y="550" width="120" height="40" rx="20" fill="#E67E22"/>
  <text x="290" y="577" font-family="Microsoft YaHei" font-size="16" fill="#FFFFFF" text-anchor="middle">制造业</text>
  
  <rect x="370" y="550" width="120" height="40" rx="20" fill="#E67E22"/>
  <text x="430" y="577" font-family="Microsoft YaHei" font-size="16" fill="#FFFFFF" text-anchor="middle">维修系统</text>
  
  <rect x="660" y="420" width="560" height="250" rx="8" fill="#F8F9FA" stroke="#4A90A4" stroke-width="2"/>
  <rect x="660" y="420" width="560" height="50" rx="8" fill="#1E3A5F"/>
  <rect x="660" y="462" width="560" height="8" fill="#1E3A5F"/>
  <text x="940" y="455" font-family="Microsoft YaHei" font-size="22" font-weight="bold" fill="#FFFFFF" text-anchor="middle">研究方向</text>
  
  <circle cx="690" cy="500" r="5" fill="#4A90A4"/>
  <text x="710" y="508" font-family="Microsoft YaHei" font-size="18" fill="#333333">稳态分析与性能评估</text>
  
  <circle cx="690" cy="535" r="5" fill="#4A90A4"/>
  <text x="710" y="543" font-family="Microsoft YaHei" font-size="18" fill="#333333">排队网络与多类顾客</text>
  
  <circle cx="690" cy="570" r="5" fill="#4A90A4"/>
  <text x="710" y="578" font-family="Microsoft YaHei" font-size="18" fill="#333333">非泊松模型与复杂调度</text>
  
  <circle cx="690" cy="605" r="5" fill="#4A90A4"/>
  <text x="710" y="613" font-family="Microsoft YaHei" font-size="18" fill="#333333">大规模系统与优化设计</text>
  
  <circle cx="920" cy="500" r="5" fill="#4A90A4"/>
  <text x="940" y="508" font-family="Microsoft YaHei" font-size="18" fill="#333333">时间非齐次排队</text>
  
  <circle cx="920" cy="535" r="5" fill="#4A90A4"/>
  <text x="940" y="543" font-family="Microsoft YaHei" font-size="18" fill="#333333">服务台数量优化</text>
  
  <circle cx="920" cy="570" r="5" fill="#4A90A4"/>
  <text x="940" y="578" font-family="Microsoft YaHei" font-size="18" fill="#333333">成本与服务水平平衡</text>
  
  <circle cx="920" cy="605" r="5" fill="#4A90A4"/>
  <text x="940" y="613" font-family="Microsoft YaHei" font-size="18" fill="#333333">仿真与实际应用</text>
  
  <text x="640" y="700" font-family="Microsoft YaHei" font-size="14" fill="#888888" text-anchor="middle">10 / 10</text>
</svg>